<?xml version="1.0" encoding="UTF-8" standalone="no"?>
<!DOCTYPE svg PUBLIC "-//W3C//DTD SVG 1.1//EN"
 "http://www.w3.org/Graphics/SVG/1.1/DTD/svg11.dtd">
<!-- Generated by graphviz version 2.47.1 (20210417.1919)
 -->
<!-- Title: G Pages: 1 -->
<svg width="523pt" height="66pt"
 viewBox="0.00 0.00 523.20 66.20" xmlns="http://www.w3.org/2000/svg" xmlns:xlink="http://www.w3.org/1999/xlink">
<g id="graph0" class="graph" transform="scale(1 1) rotate(0) translate(21.6 44.6)">
<title>G</title>
<polygon fill="#111111" stroke="transparent" points="-21.6,21.6 -21.6,-44.6 501.6,-44.6 501.6,21.6 -21.6,21.6"/>
<!-- index.js -->
<g id="node1" class="node">
<title>index.js</title>
<path fill="none" stroke="#c6c5fe" d="M57.33,-23C57.33,-23 7.67,-23 7.67,-23 3.83,-23 0,-19.17 0,-15.33 0,-15.33 0,-7.67 0,-7.67 0,-3.83 3.83,0 7.67,0 7.67,0 57.33,0 57.33,0 61.17,0 65,-3.83 65,-7.67 65,-7.67 65,-15.33 65,-15.33 65,-19.17 61.17,-23 57.33,-23"/>
<text text-anchor="middle" x="32.5" y="-7.8" font-family="Arial" font-size="14.00" fill="#c6c5fe">index.js</text>
</g>
<!-- src/smite.js -->
<g id="node2" class="node">
<title>src/smite.js</title>
<path fill="none" stroke="#c6c5fe" d="M182.33,-23C182.33,-23 108.67,-23 108.67,-23 104.83,-23 101,-19.17 101,-15.33 101,-15.33 101,-7.67 101,-7.67 101,-3.83 104.83,0 108.67,0 108.67,0 182.33,0 182.33,0 186.17,0 190,-3.83 190,-7.67 190,-7.67 190,-15.33 190,-15.33 190,-19.17 186.17,-23 182.33,-23"/>
<text text-anchor="middle" x="145.5" y="-7.8" font-family="Arial" font-size="14.00" fill="#c6c5fe">src/smite.js</text>
</g>
<!-- index.js&#45;&gt;src/smite.js -->
<g id="edge1" class="edge">
<title>index.js&#45;&gt;src/smite.js</title>
<path fill="none" stroke="#757575" d="M65.01,-11.5C73.03,-11.5 81.87,-11.5 90.66,-11.5"/>
<polygon fill="#757575" stroke="#757575" points="90.89,-15 100.89,-11.5 90.89,-8 90.89,-15"/>
</g>
<!-- src/HirezAbstract.js -->
<g id="node3" class="node">
<title>src/HirezAbstract.js</title>
<path fill="none" stroke="#c6c5fe" d="M357.33,-23C357.33,-23 233.67,-23 233.67,-23 229.83,-23 226,-19.17 226,-15.33 226,-15.33 226,-7.67 226,-7.67 226,-3.83 229.83,0 233.67,0 233.67,0 357.33,0 357.33,0 361.17,0 365,-3.83 365,-7.67 365,-7.67 365,-15.33 365,-15.33 365,-19.17 361.17,-23 357.33,-23"/>
<text text-anchor="middle" x="295.5" y="-7.8" font-family="Arial" font-size="14.00" fill="#c6c5fe">src/HirezAbstract.js</text>
</g>
<!-- src/smite.js&#45;&gt;src/HirezAbstract.js -->
<g id="edge3" class="edge">
<title>src/smite.js&#45;&gt;src/HirezAbstract.js</title>
<path fill="none" stroke="#757575" d="M190.1,-11.5C198.28,-11.5 207.06,-11.5 215.92,-11.5"/>
<polygon fill="#757575" stroke="#757575" points="215.94,-15 225.94,-11.5 215.94,-8 215.94,-15"/>
</g>
<!-- src/utils.js -->
<g id="node4" class="node">
<title>src/utils.js</title>
<path fill="none" stroke="#cfffac" d="M472.33,-23C472.33,-23 408.67,-23 408.67,-23 404.83,-23 401,-19.17 401,-15.33 401,-15.33 401,-7.67 401,-7.67 401,-3.83 404.83,0 408.67,0 408.67,0 472.33,0 472.33,0 476.17,0 480,-3.83 480,-7.67 480,-7.67 480,-15.33 480,-15.33 480,-19.17 476.17,-23 472.33,-23"/>
<text text-anchor="middle" x="440.5" y="-7.8" font-family="Arial" font-size="14.00" fill="#cfffac">src/utils.js</text>
</g>
<!-- src/HirezAbstract.js&#45;&gt;src/utils.js -->
<g id="edge2" class="edge">
<title>src/HirezAbstract.js&#45;&gt;src/utils.js</title>
<path fill="none" stroke="#757575" d="M365.07,-11.5C373.74,-11.5 382.46,-11.5 390.74,-11.5"/>
<polygon fill="#757575" stroke="#757575" points="390.93,-15 400.93,-11.5 390.93,-8 390.93,-15"/>
</g>
</g>
</svg>
